<svg version="1.1" xmlns="http://www.w3.org/2000/svg" xmlns:xlink="http://www.w3.org/1999/xlink" width="800" height="800"><defs/><g transform="scale(2,2)"><g id="background-abaa41b2"><rect fill="white" stroke="none" x="0" y="0" width="400" height="400" class="dcg-svg-background"/></g><g id="graphpaper-abaa41b2"><g id="grid-abaa41b2"><g stroke="rgb(0,0,0)" stroke-opacity="0.2500000000000001" stroke-miterlimit="10" stroke-dasharray=""><path fill="none" stroke="" class="dcg-svg-minor-gridline" d=""/><g transform="scale(1,0.9999999999999986)"><path fill="none" stroke="" d=" M 137.90250648499585 196.50000000000028 L 137.90250648499585 196.50000000000028 A 17.402506484995854 17.402506484995854 0 1 1 137.90249778374334 196.4825974964157"/><g transform="scale(1,1.0000000000000013)" stroke=""><path fill="none" stroke="" class="dcg-svg-minor-gridline" d=""/><g transform="scale(1,0.9999999999999986)"><path fill="none" stroke="" d=" M 155.63916438995446 196.50000000000028 L 155.63916438995446 196.50000000000028 A 35.13916438995446 35.13916438995446 0 1 1 155.63914682037372 196.46486084146684"/><g transform="scale(1,1.0000000000000013)" stroke=""><path fill="none" stroke="" class="dcg-svg-minor-gridline" d=""/><g transform="scale(1,0.9999999999999986)"><path fill="none" stroke="" d=" M 173.3758222949131 196.50000000000028 L 173.3758222949131 196.50000000000028 A 52.87582229491309 52.87582229491309 0 1 1 173.37579585700416 196.44712418651798"/><g transform="scale(1,1.0000000000000013)" stroke=""><path fill="none" stroke="" class="dcg-svg-minor-gridline" d=""/><g transform="scale(1,0.9999999999999986)"><path fill="none" stroke="" d=" M 191.1124801998717 196.50000000000028 L 191.1124801998717 196.50000000000028 A 70.6124801998717 70.6124801998717 0 1 1 191.11244489363455 196.42938753156912"/><g transform="scale(1,1.0000000000000013)" stroke=""><path fill="none" stroke="" class="dcg-svg-minor-gridline" d=""/><g transform="scale(1,0.9999999999999986)"><path fill="none" stroke="" d=" M 208.84913810483033 196.50000000000028 L 208.84913810483033 196.50000000000028 A 88.34913810483033 88.34913810483033 0 1 1 208.84909393026496 196.41165087662026"/><g transform="scale(1,1.0000000000000013)" stroke=""><path fill="none" stroke="" class="dcg-svg-minor-gridline" d=""/><g transform="scale(1,0.9999999999999986)"><path fill="none" stroke="" d=" M 226.58579600978896 196.50000000000028 L 226.58579600978896 196.50000000000028 A 106.08579600978896 106.08579600978896 0 1 1 226.5857429668954 196.3939142216714"/><g transform="scale(1,1.0000000000000013)" stroke=""><path fill="none" stroke="" class="dcg-svg-minor-gridline" d=""/><g transform="scale(1,0.9999999999999986)"><path fill="none" stroke="" d=" M 244.32245391474754 196.50000000000028 L 244.32245391474754 196.50000000000028 A 123.82245391474754 123.82245391474754 0 1 1 244.32239200352575 196.37617756672253"/><g transform="scale(1,1.0000000000000013)" stroke=""><path fill="none" stroke="" class="dcg-svg-minor-gridline" d=""/><g transform="scale(1,0.9999999999999986)"><path fill="none" stroke="" d=" M 262.0591118197062 196.50000000000028 L 262.0591118197062 196.50000000000028 A 141.55911181970617 141.55911181970617 0 1 1 262.05904104015616 196.35844091177367"/><g transform="scale(1,1.0000000000000013)" stroke=""><path fill="none" stroke="" class="dcg-svg-minor-gridline" d=""/><g transform="scale(1,0.9999999999999986)"><path fill="none" stroke="" d=" M 279.7957697246648 196.50000000000028 L 279.7957697246648 196.50000000000028 A 159.2957697246648 159.2957697246648 0 1 1 279.79569007678657 196.3407042568248"/><g transform="scale(1,1.0000000000000013)" stroke=""><path fill="none" stroke="" class="dcg-svg-minor-gridline" d=""/><g transform="scale(1,0.9999999999999986)"><path fill="none" stroke="" d=" M 297.5324276296234 196.50000000000028 L 297.5324276296234 196.50000000000028 A 177.03242762962338 177.03242762962338 0 1 1 297.5323391134169 196.32296760187597"/><g transform="scale(1,1.0000000000000013)" stroke=""><path fill="none" stroke="" class="dcg-svg-minor-gridline" d=""/><g transform="scale(1,0.9999999999999986)"><path fill="none" stroke="" d=" M 315.269085534582 196.50000000000028 L 315.269085534582 196.50000000000028 A 194.76908553458202 194.76908553458202 0 1 1 315.26898815004733 196.3052309469271"/><g transform="scale(1,1.0000000000000013)" stroke=""><path fill="none" stroke="" class="dcg-svg-minor-gridline" d=""/><g transform="scale(1,0.9999999999999986)"><path fill="none" stroke="" d=" M 333.00574343954065 196.50000000000028 L 333.00574343954065 196.50000000000028 A 212.50574343954065 212.50574343954065 0 1 1 333.00563718667775 196.28749429197825"/><g transform="scale(1,1.0000000000000013)" stroke=""><path fill="none" stroke="" class="dcg-svg-minor-gridline" d=""/><g transform="scale(1,0.9999999999999986)"><path fill="none" stroke="" d=" M 350.7424013444992 196.50000000000028 L 350.7424013444992 196.50000000000028 A 230.24240134449923 230.24240134449923 0 1 1 350.74228622330816 196.2697576370294"/><g transform="scale(1,1.0000000000000013)" stroke=""><path fill="none" stroke="" class="dcg-svg-minor-gridline" d=""/><g transform="scale(1,0.9999999999999986)"><path fill="none" stroke="" d=" M 368.47905924945786 196.50000000000028 L 368.47905924945786 196.50000000000028 A 247.97905924945786 247.97905924945786 0 1 1 368.47893525993857 196.25202098208052"/><g transform="scale(1,1.0000000000000013)" stroke=""><path fill="none" stroke="" class="dcg-svg-minor-gridline" d=""/><g transform="scale(1,0.9999999999999986)"><path fill="none" stroke="" d=" M 386.2157171544165 196.50000000000028 L 386.2157171544165 196.50000000000028 A 265.7157171544165 265.7157171544165 0 1 1 386.215584296569 196.23428432713166"/><g transform="scale(1,1.0000000000000013)" stroke=""><path fill="none" stroke="" class="dcg-svg-minor-gridline" d=""/><g transform="scale(1,0.9999999999999986)"><path fill="none" stroke="" d=" M 403.9523750593751 196.50000000000028 L 403.9523750593751 196.50000000000028 A 283.4523750593751 283.4523750593751 0 1 1 403.95223333319933 196.2165476721828"/><g transform="scale(1,1.0000000000000013)" stroke=""><path fill="none" stroke="" class="dcg-svg-minor-gridline" d=""/><g transform="scale(1,0.9999999999999986)"><path fill="none" stroke="" d=" M 421.6890329643337 196.50000000000028 L 421.6890329643337 196.50000000000028 A 301.1890329643337 301.1890329643337 0 1 1 421.6888823698298 196.19881101723394"/><g transform="scale(1,1.0000000000000013)" stroke=""><path fill="none" stroke="" class="dcg-svg-minor-gridline" d=""/><g transform="scale(1,0.9999999999999986)"><path fill="none" stroke="" d=" M 439.42569086929234 196.50000000000028 L 439.42569086929234 196.50000000000028 A 318.92569086929234 318.92569086929234 0 1 1 439.4255314064602 196.18107436228507"/><g transform="scale(1,1.0000000000000013)" stroke=""><path fill="none" stroke="" class="dcg-svg-minor-gridline" d=""/><g transform="scale(1,0.9999999999999986)"><path fill="none" stroke="" d=" M 457.162348774251 196.50000000000028 L 457.162348774251 196.50000000000028 A 336.662348774251 336.662348774251 0 1 1 457.1621804430906 196.16333770733624"/><g transform="scale(1,1.0000000000000013)" stroke=""><path fill="none" stroke="" class="dcg-svg-minor-gridline" paint-order="fill stroke markers" d=" M 120.5 196.5 L 454.5 106.5"/><path fill="none" stroke="" class="dcg-svg-minor-gridline" paint-order="fill stroke markers" d=" M 120.5 196.5 L 419.5 23.5"/><path fill="none" stroke="" class="dcg-svg-minor-gridline" paint-order="fill stroke markers" d=" M 120.5 196.5 L 364.5 -48.5"/><path fill="none" stroke="" class="dcg-svg-minor-gridline" paint-order="fill stroke markers" d=" M 120.5 196.5 L 293.5 -103.5"/><path fill="none" stroke="" class="dcg-svg-minor-gridline" paint-order="fill stroke markers" d=" M 120.5 196.5 L 209.5 -137.5"/><path fill="none" stroke="" class="dcg-svg-minor-gridline" paint-order="fill stroke markers" d=" M 120.5 196.5 L 30.5 -137.5"/><path fill="none" stroke="" class="dcg-svg-minor-gridline" paint-order="fill stroke markers" d=" M 120.5 196.5 L -52.5 -103.5"/><path fill="none" stroke="" class="dcg-svg-minor-gridline" paint-order="fill stroke markers" d=" M 120.5 196.5 L -124.5 -48.5"/><path fill="none" stroke="" class="dcg-svg-minor-gridline" paint-order="fill stroke markers" d=" M 120.5 196.5 L -179.5 23.5"/><path fill="none" stroke="" class="dcg-svg-minor-gridline" paint-order="fill stroke markers" d=" M 120.5 196.5 L -214.5 106.5"/><path fill="none" stroke="" class="dcg-svg-minor-gridline" paint-order="fill stroke markers" d=" M 120.5 196.5 L -214.5 286.5"/><path fill="none" stroke="" class="dcg-svg-minor-gridline" paint-order="fill stroke markers" d=" M 120.5 196.5 L -179.5 369.5"/><path fill="none" stroke="" class="dcg-svg-minor-gridline" paint-order="fill stroke markers" d=" M 120.5 196.5 L -124.5 441.5"/><path fill="none" stroke="" class="dcg-svg-minor-gridline" paint-order="fill stroke markers" d=" M 120.5 196.5 L -52.5 496.5"/><path fill="none" stroke="" class="dcg-svg-minor-gridline" paint-order="fill stroke markers" d=" M 120.5 196.5 L 30.5 530.5"/><path fill="none" stroke="" class="dcg-svg-minor-gridline" paint-order="fill stroke markers" d=" M 120.5 196.5 L 209.5 530.5"/><path fill="none" stroke="" class="dcg-svg-minor-gridline" paint-order="fill stroke markers" d=" M 120.5 196.5 L 293.5 496.5"/><path fill="none" stroke="" class="dcg-svg-minor-gridline" paint-order="fill stroke markers" d=" M 120.5 196.5 L 364.5 441.5"/><path fill="none" stroke="" class="dcg-svg-minor-gridline" paint-order="fill stroke markers" d=" M 120.5 196.5 L 419.5 369.5"/><path fill="none" stroke="" class="dcg-svg-minor-gridline" paint-order="fill stroke markers" d=" M 120.5 196.5 L 454.5 286.5"/><path fill="none" stroke="" class="dcg-svg-major-gridline" d=""/><g transform="scale(1,0.9999999999999986)"><path fill="none" stroke="" d=" M 208.84913810483033 196.50000000000028 L 208.84913810483033 196.50000000000028 A 88.34913810483033 88.34913810483033 0 1 1 208.84909393026496 196.41165087662026"/><g transform="scale(1,1.0000000000000013)" stroke=""><path fill="none" stroke="" class="dcg-svg-major-gridline" d=""/><g transform="scale(1,0.9999999999999986)"><path fill="none" stroke="" d=" M 297.5324276296234 196.50000000000028 L 297.5324276296234 196.50000000000028 A 177.03242762962338 177.03242762962338 0 1 1 297.5323391134169 196.32296760187597"/><g transform="scale(1,1.0000000000000013)" stroke=""><path fill="none" stroke="" class="dcg-svg-major-gridline" d=""/><g transform="scale(1,0.9999999999999986)"><path fill="none" stroke="" d=" M 386.2157171544165 196.50000000000028 L 386.2157171544165 196.50000000000028 A 265.7157171544165 265.7157171544165 0 1 1 386.215584296569 196.23428432713166"/><g transform="scale(1,1.0000000000000013)" stroke=""/></g></g></g></g></g></g></g></g></g></g></g></g></g></g></g></g></g></g></g></g></g></g></g></g></g></g></g></g></g></g></g></g></g></g></g></g></g></g></g></g></g></g></g></g></g><g id="axis-abaa41b2"><g id="yaxis-abaa41b2"><title>Y axis</title><g><path fill="none" stroke="rgb(0,0,0)" class="dcg-svg-axis-line" paint-order="fill stroke markers" d=" M 120 0 L 120 400" stroke-opacity="0.9" stroke-miterlimit="10" stroke-width="1.5" stroke-dasharray=""/></g></g><g id="xaxis-abaa41b2"><title>X axis</title><g><path fill="none" stroke="rgb(0,0,0)" class="dcg-svg-axis-line" paint-order="fill stroke markers" d=" M 0 197 L 400 197" stroke-opacity="0.9" stroke-miterlimit="10" stroke-width="1.5" stroke-dasharray=""/></g></g><g><g class="dcg-svg-axis-value"><text fill="none" stroke="#ffffff" font-family="Arial" font-size="14px" font-style="normal" font-weight="normal" text-decoration="normal" x="208.84913810483033" y="210.34302410647354" text-anchor="middle" stroke-miterlimit="2" stroke-width="3" stroke-dasharray="">0.5</text><text fill="#000000" stroke="none" font-family="Arial" font-size="14px" font-style="normal" font-weight="normal" text-decoration="normal" x="208.84913810483033" y="210.34302410647354" text-anchor="middle">0.5</text></g><g class="dcg-svg-axis-value"><text fill="none" stroke="#ffffff" font-family="Arial" font-size="14px" font-style="normal" font-weight="normal" text-decoration="normal" x="31.482559055244153" y="210.34302410647354" text-anchor="middle" stroke-miterlimit="2" stroke-width="3" stroke-dasharray="">0.5</text><text fill="#000000" stroke="none" font-family="Arial" font-size="14px" font-style="normal" font-weight="normal" text-decoration="normal" x="31.482559055244153" y="210.34302410647354" text-anchor="middle">0.5</text></g><g class="dcg-svg-axis-value"><text fill="none" stroke="#ffffff" font-family="Arial" font-size="14px" font-style="normal" font-weight="normal" text-decoration="normal" x="105.43489154878723" y="111.6597345816806" text-anchor="middle" stroke-miterlimit="2" stroke-width="3" stroke-dasharray="">0.5</text><text fill="#000000" stroke="none" font-family="Arial" font-size="14px" font-style="normal" font-weight="normal" text-decoration="normal" x="105.43489154878723" y="111.6597345816806" text-anchor="middle">0.5</text></g><g class="dcg-svg-axis-value"><text fill="none" stroke="#ffffff" font-family="Arial" font-size="14px" font-style="normal" font-weight="normal" text-decoration="normal" x="105.43489154878723" y="289.0263136312665" text-anchor="middle" stroke-miterlimit="2" stroke-width="3" stroke-dasharray="">0.5</text><text fill="#000000" stroke="none" font-family="Arial" font-size="14px" font-style="normal" font-weight="normal" text-decoration="normal" x="105.43489154878723" y="289.0263136312665" text-anchor="middle">0.5</text></g><g class="dcg-svg-axis-value"><text fill="none" stroke="#ffffff" font-family="Arial" font-size="14px" font-style="normal" font-weight="normal" text-decoration="normal" x="297.5324276296234" y="210.34302410647354" text-anchor="middle" stroke-miterlimit="2" stroke-width="3" stroke-dasharray="">1</text><text fill="#000000" stroke="none" font-family="Arial" font-size="14px" font-style="normal" font-weight="normal" text-decoration="normal" x="297.5324276296234" y="210.34302410647354" text-anchor="middle">1</text></g><g class="dcg-svg-axis-value"><text fill="none" stroke="#ffffff" font-family="Arial" font-size="14px" font-style="normal" font-weight="normal" text-decoration="normal" x="111.27278217378723" y="22.976445056887634" text-anchor="middle" stroke-miterlimit="2" stroke-width="3" stroke-dasharray="">1</text><text fill="#000000" stroke="none" font-family="Arial" font-size="14px" font-style="normal" font-weight="normal" text-decoration="normal" x="111.27278217378723" y="22.976445056887634" text-anchor="middle">1</text></g><g class="dcg-svg-axis-value"><text fill="none" stroke="#ffffff" font-family="Arial" font-size="14px" font-style="normal" font-weight="normal" text-decoration="normal" x="111.27278217378723" y="377.7096031560594" text-anchor="middle" stroke-miterlimit="2" stroke-width="3" stroke-dasharray="">1</text><text fill="#000000" stroke="none" font-family="Arial" font-size="14px" font-style="normal" font-weight="normal" text-decoration="normal" x="111.27278217378723" y="377.7096031560594" text-anchor="middle">1</text></g><g class="dcg-svg-axis-value"><text fill="none" stroke="#ffffff" font-family="Arial" font-size="14px" font-style="normal" font-weight="normal" text-decoration="normal" x="386.2157171544165" y="210.34302410647354" text-anchor="middle" stroke-miterlimit="2" stroke-width="3" stroke-dasharray="">1.5</text><text fill="#000000" stroke="none" font-family="Arial" font-size="14px" font-style="normal" font-weight="normal" text-decoration="normal" x="386.2157171544165" y="210.34302410647354" text-anchor="middle">1.5</text></g><g class="dcg-svg-polar-axis-value"><text fill="none" stroke="#ffffff" font-family="Arial" font-size="14px" font-style="normal" font-weight="normal" text-decoration="normal" x="289.08640005583356" y="186.34302410647354" text-anchor="middle" stroke-miterlimit="2" stroke-width="3" stroke-dasharray="">0</text><text fill="rgb(150,150,150)" stroke="none" font-family="Arial" font-size="14px" font-style="normal" font-weight="normal" text-decoration="normal" x="289.08640005583356" y="186.34302410647354" text-anchor="middle" fill-opacity="1">0</text></g><g class="dcg-svg-polar-axis-value"><text fill="none" stroke="#ffffff" font-family="Arial" font-size="14px" font-style="normal" font-weight="normal" text-decoration="normal" x="266.4553373793538" y="115.8827483685755" text-anchor="middle" stroke-miterlimit="2" stroke-width="3" stroke-dasharray="">π/6</text><text fill="rgb(150,150,150)" stroke="none" font-family="Arial" font-size="14px" font-style="normal" font-weight="normal" text-decoration="normal" x="266.4553373793538" y="115.8827483685755" text-anchor="middle" fill-opacity="1">π/6</text></g><g class="dcg-svg-polar-axis-value"><text fill="none" stroke="#ffffff" font-family="Arial" font-size="14px" font-style="normal" font-weight="normal" text-decoration="normal" x="204.62612431793542" y="54.05353530715718" text-anchor="middle" stroke-miterlimit="2" stroke-width="3" stroke-dasharray="">π/3</text><text fill="rgb(150,150,150)" stroke="none" font-family="Arial" font-size="14px" font-style="normal" font-weight="normal" text-decoration="normal" x="204.62612431793542" y="54.05353530715718" text-anchor="middle" fill-opacity="1">π/3</text></g><g class="dcg-svg-polar-axis-value"><text fill="none" stroke="#ffffff" font-family="Arial" font-size="14px" font-style="normal" font-weight="normal" text-decoration="normal" x="130.07991108003725" y="31.422472630677454" text-anchor="middle" stroke-miterlimit="2" stroke-width="3" stroke-dasharray="">π/2</text><text fill="rgb(150,150,150)" stroke="none" font-family="Arial" font-size="14px" font-style="normal" font-weight="normal" text-decoration="normal" x="130.07991108003725" y="31.422472630677454" text-anchor="middle" fill-opacity="1">π/2</text></g><g class="dcg-svg-polar-axis-value"><text fill="none" stroke="#ffffff" font-family="Arial" font-size="14px" font-style="normal" font-weight="normal" text-decoration="normal" x="35.705572842139105" y="54.05353530715713" text-anchor="middle" stroke-miterlimit="2" stroke-width="3" stroke-dasharray="">2π/3</text><text fill="rgb(150,150,150)" stroke="none" font-family="Arial" font-size="14px" font-style="normal" font-weight="normal" text-decoration="normal" x="35.705572842139105" y="54.05353530715713" text-anchor="middle" fill-opacity="1">2π/3</text></g><g class="dcg-svg-polar-axis-value"><text fill="none" stroke="#ffffff" font-family="Arial" font-size="14px" font-style="normal" font-weight="normal" text-decoration="normal" x="35.70557284213899" y="346.6325129057899" text-anchor="middle" stroke-miterlimit="2" stroke-width="3" stroke-dasharray="">4π/3</text><text fill="rgb(150,150,150)" stroke="none" font-family="Arial" font-size="14px" font-style="normal" font-weight="normal" text-decoration="normal" x="35.70557284213899" y="346.6325129057899" text-anchor="middle" fill-opacity="1">4π/3</text></g><g class="dcg-svg-polar-axis-value"><text fill="none" stroke="#ffffff" font-family="Arial" font-size="14px" font-style="normal" font-weight="normal" text-decoration="normal" x="132.86067279878722" y="369.2635755822696" text-anchor="middle" stroke-miterlimit="2" stroke-width="3" stroke-dasharray="">3π/2</text><text fill="rgb(150,150,150)" stroke="none" font-family="Arial" font-size="14px" font-style="normal" font-weight="normal" text-decoration="normal" x="132.86067279878722" y="369.2635755822696" text-anchor="middle" fill-opacity="1">3π/2</text></g><g class="dcg-svg-polar-axis-value"><text fill="none" stroke="#ffffff" font-family="Arial" font-size="14px" font-style="normal" font-weight="normal" text-decoration="normal" x="204.62612431793542" y="346.6325129057899" text-anchor="middle" stroke-miterlimit="2" stroke-width="3" stroke-dasharray="">5π/3</text><text fill="rgb(150,150,150)" stroke="none" font-family="Arial" font-size="14px" font-style="normal" font-weight="normal" text-decoration="normal" x="204.62612431793542" y="346.6325129057899" text-anchor="middle" fill-opacity="1">5π/3</text></g><g class="dcg-svg-polar-axis-value"><text fill="none" stroke="#ffffff" font-family="Arial" font-size="14px" font-style="normal" font-weight="normal" text-decoration="normal" x="266.45533737935375" y="284.8032998443717" text-anchor="middle" stroke-miterlimit="2" stroke-width="3" stroke-dasharray="">11π/6</text><text fill="rgb(150,150,150)" stroke="none" font-family="Arial" font-size="14px" font-style="normal" font-weight="normal" text-decoration="normal" x="266.45533737935375" y="284.8032998443717" text-anchor="middle" fill-opacity="1">11π/6</text></g></g></g></g><g id="expressions-abaa41b2"><g id="sketch-abaa41b2"><title>Expression 2</title><g><path fill="none" stroke="#348543" class="dcg-svg-curve" paint-order="fill stroke markers" d=" M 297.5324276296234 196.53502410647354 L 297.5324276296234 196.53502410647354 L 297.3924096534083 194.3078122203484 L 296.9726563637793 192.09044850723086 L 296.27406895185777 189.89275359605628 L 295.29814698490065 187.72449309887864 L 294.0469847857224 185.59535028040634 L 292.5232663765478 183.51489894060364 L 290.7302589999204 181.4925765805362 L 288.6718052328434 179.53765792091997 L 286.3523137138403 177.65922884193662 L 283.77674850608713 175.86616081180728 L 280.9506171231685 174.16708587037553 L 277.87995724735026 172.57037223253894 L 274.57132217351875 171.08410057479423 L 271.03176501512013 169.71604106642388 L 267.2688217115138 168.47363120496072 L 263.2904928791467 167.3639545135215 L 259.10522455183207 166.3937201554105 L 254.72188785818383 165.56924351906278 L 250.14975768690482 164.89642782392838 L 245.3984903931417 164.3807467953057 L 240.4781006015068 164.02722845341196 L 235.39893716360737 163.84044005914734 L 230.17165833002417 163.824474256067 L 224.80720619862666 163.98293644503337 L 216.52789134662453 164.55433949602946 L 208.0039341645746 165.5334068862789 L 199.27503839482318 166.92583140357266 L 190.3816542429716 168.73461998422022 L 181.36476153314024 170.9600611105839 L 172.2656504294165 173.59970815646017 L 163.1257009501742 176.64837879628183 L 153.98616250802584 180.0981705020925 L 144.88793470725938 183.93849206006072 L 135.8713506227329 188.1561109464745 L 126.9759637694007 192.73521631221357 L 118.24033995000107 197.65749723515324 L 109.70185514008232 202.90223581232198 L 101.39650053463205 208.44641457841018 L 93.35869583931398 214.26483765490053 L 85.62111184193137 220.33026495512712 L 78.21450324651033 226.61355869541887 L 71.16755269361539 233.0838413915787 L 64.50672682652602 239.70866445368793 L 58.25614519406914 246.45418643099106 L 52.43746270761217 253.2853599027555 L 47.06976629239695 260.1661259608333 L 42.169486292468804 267.05961518546343 L 37.75032310439211 273.9283539778981 L 33.82318942822225 280.73447508193004 L 30.39616843531283 287.43993110152104 L 28.39202774404079 291.835530631348 L 26.61338345873149 296.1582808564216 L 25.06051154638942 300.3970499841138 L 23.733124316557564 304.540812457648 L 22.630373807414657 308.5786770085044 L 21.750856581278086 312.4999144363685 L 21.092619915722608 316.2939850462789 L 20.653169373004715 319.95056567345443 L 20.42947772700593 323.4595762272812 L 20.417995223486344 326.81120568711117 L 20.614661146079584 329.9959374838693 L 21.014916657171028 333.0045742029745 L 21.613718879590337 335.8282615457547 L 22.405556181926045 338.45851148836664 L 23.384464627242522 340.8872245792189 L 24.544045542051705 343.1067113180329 L 25.877484159578813 345.109712561955 L 27.377569288660567 346.8894189065526 L 29.036713957040888 348.43948899207714 L 30.846976975383555 349.7540666880517 L 32.80008536601558 350.8277971120384 L 34.88745759824633 351.6558414413456 L 37.10022757009365 352.2338904794485 L 39.42926927438103 352.5581769420047 L 41.86522208546286 352.6254864305432 L 44.398516601292314 352.4331670651892 L 47.01940097416329 351.97913775113113 L 49.71796766225155 351.26189505696357 L 52.48418053303983 350.280518686502 L 55.30790224885024 349.03467552919216 L 58.178921864021916 347.5246222777922 L 61.08698256276342 345.75120660559287 L 64.02180946638515 343.71586689904814 L 66.97313743846824 341.4206305453099 L 69.93073881656431 338.86811077777736 L 72.88445099923547 336.0615020863881 L 77.28573048467436 331.38357409941443 L 81.62217500964465 326.15767004917075 L 85.8611369502646 320.4017025029341 L 89.97097235546133 314.13630253763176 L 93.92123149358378 307.384719669863 L 97.6828419588314 300.17270730000007 L 100.07211817938138 295.12270211643255 L 102.35754712876877 289.88940958182684 L 104.53175204503128 284.48214342363656 L 106.5877357929394 278.91061777748274 L 108.5188994898977 273.1849251402054 L 110.31906006290576 267.3155133902426 L 111.98246669166771 261.3131619317976 L 113.50381609579387 255.1889570214496 L 114.87826662699645 248.95426633792695 L 116.10145113024288 242.62071285764964 L 117.16948854097926 236.20014810040087 L 118.07899418877147 229.7046248110643 L 118.82708878102073 223.14636914477842 L 119.41140604378519 216.5377524241137 L 119.83009900017504 209.89126253794086 L 120.08184487027044 203.21947505257313 L 120.16584858003723 196.53502410647354 L 120.08184487027044 189.850573160374 L 119.83009900017504 183.17878567500628 L 119.41140604378519 176.53229578883344 L 118.82708878102073 169.92367906816875 L 118.07899418877147 163.36542340188285 L 117.16948854097926 156.86990011254628 L 116.10145113024289 150.4493353552975 L 114.87826662699644 144.11578187502005 L 113.50381609579385 137.88109119149743 L 111.98246669166768 131.7568862811494 L 110.31906006290575 125.75453482270441 L 108.5188994898977 119.88512307274175 L 106.58773579293941 114.15943043546443 L 104.53175204503127 108.58790478931044 L 102.35754712876879 103.18063863112035 L 100.0721181793814 97.94734609651458 L 97.68284195883149 92.89734091294724 L 95.19745520862419 88.03951533954984 L 91.30692182724115 81.13147440330893 L 87.24695953318522 74.70130404927731 L 83.04757889640076 68.77310184850033 L 78.74004662145316 63.36838353736704 L 74.35669736098579 58.505978054416744 L 69.93073881656434 54.201937435169725 L 66.97313743846826 51.64941766763715 L 64.02180946638518 49.35418131389895 L 61.086982562763424 47.31884160735416 L 58.178921864021945 45.54542593515487 L 55.30790224885027 44.03537268375493 L 52.48418053303985 42.78952952644508 L 49.71796766225157 41.80815315598349 L 47.01940097416326 41.09091046181595 L 44.39851660129237 40.63688114775792 L 41.86522208546293 40.44456178240381 L 39.42926927438104 40.51187127094241 L 37.100227570093665 40.83615773349851 L 34.887457598246286 41.4142067716015 L 32.80008536601561 42.242251100908646 L 30.846976975383583 43.315981524895335 L 29.036713957040888 44.63055922086991 L 27.37756928866058 46.18062930639451 L 25.8774841595788 47.960335650992135 L 24.544045542051734 49.963336894914164 L 23.38446462724258 52.18282363372808 L 22.405556181926073 54.61153672458036 L 21.61371887959035 57.24178666719234 L 21.01491665717107 60.065474009972604 L 20.614661146079627 63.07411072907769 L 20.417995223486344 66.25884252583575 L 20.42947772700596 69.61047198566578 L 20.6531693730047 73.11948253949252 L 21.092619915722636 76.7760631666682 L 21.75085658127807 80.57013377657844 L 22.630373807414657 84.49137120444257 L 23.733124316557564 88.52923575529904 L 25.06051154638942 92.67299822883331 L 26.613383458731533 96.91176735652556 L 28.392027744040732 101.23451758159895 L 30.396168435312845 105.63011711142603 L 32.624963941623704 110.08735617140034 L 35.077006507961144 114.59497538882201 L 39.16918856586433 121.42619206646594 L 43.750075225470454 128.30737340573825 L 48.80781911533974 135.20075976858809 L 54.32780266160678 142.06905574050842 L 60.29270108047701 148.87563938720695 L 66.68256086826659 155.58476692997067 L 73.47489337134898 162.1617716815805 L 80.6447829324739 168.57325611830157 L 88.16500902685355 174.7872760035343 L 96.00618172164596 180.77351552492917 L 104.13688971642694 186.50345245886103 L 112.52386015039426 191.95051243384586 L 121.1321292947958 197.09021142744172 L 129.92522318677482 201.9002856990195 L 138.86534720386774 206.3608084331602 L 147.9135835270757 210.45429244490467 L 157.03009539505962 214.16577837821774 L 166.1743370128405 217.4829079123741 L 175.30526794563997 220.39598157705586 L 184.38157080236337 222.8980008652755 L 193.36187099385387 224.98469442330617 L 202.2049573385451 226.65452818809726 L 210.87000228258273 227.9086994346552 L 219.31678050290336 228.75111478806073 L 227.50588467014924 229.188352346641 L 235.39893716360754 229.22960815379977 L 242.95879655251116 228.8866273456141 L 247.79589838547247 228.4514276162848 L 252.45882710810366 227.85652252872268 L 256.93774427667836 227.10716491071938 L 261.22318142477747 226.20904533168397 L 265.306062815695 225.16827532910807 L 269.17772726341906 223.9913695430907 L 272.829948967769 222.68522680558644 L 276.2549573117128 221.25711023369564 L 279.44545557147745 219.71462637885105 L 282.3946384927684 218.0657034861509 L 285.0962086892387 216.31856892035483 L 287.5443918222869 214.4817258171731 L 289.733950524295 212.5639290204516 L 291.6601970305571 210.5741603676691 L 293.31900448836404 208.521603387818 L 294.70681691501545 206.41561747723674 L 295.82065777989703 204.2657116202838 L 296.6581371891991 202.08151772290495 L 297.21745765533666 199.8727636281249 L 297.49741843666663 197.6492458833053 L 297.49741843666663 195.42080232964184 L 297.21745765533666 193.19728458482226 L 296.6581371891992 190.98853049004217 L 295.8206577798971 188.8043365926633 L 294.70681691501545 186.6544307357104 L 293.3190044883641 184.5484448251291 L 291.66019703055713 182.49588784527802 L 289.73395052429504 180.5061191924955 L 287.54439182228697 178.58832239577401 L 285.0962086892388 176.75147929259228 L 282.39463849276854 175.0043447267962 L 279.4454555714775 173.35542183409606 L 276.2549573117129 171.81293797925144 L 272.82994896776904 170.38482140736068 L 269.1777272634191 169.0786786698564 L 265.30606281569504 167.90177288383904 L 261.2231814247775 166.86100288126315 L 256.93774427667825 165.9628833022277 L 252.4588271081035 165.2135256842244 L 247.79589838547258 164.61862059666223 L 242.95879655251102 164.18342086733298 L 237.95770640316348 163.91272594470274 L 232.803134638727 163.81086743702872 L 227.5058846701491 163.8816958663061 L 219.3167805029032 164.31893342488638 L 210.87000228258282 165.16134877829188 L 202.20495733854494 166.41552002484985 L 193.3618709938537 168.08535378964095 L 184.3815708023635 170.17204734767157 L 175.3052679456404 172.67406663589108 L 166.1743370128409 175.58714030057283 L 157.03009539506002 178.9042698347292 L 147.9135835270761 182.61575576804225 L 138.86534720386814 186.7092397797867 L 129.92522318677518 191.16976251392737 L 121.13212929479592 195.97983678550528 L 112.52386015039464 201.119535779101 L 104.1368897164273 206.56659575408582 L 96.00618172164606 212.29653268801783 L 88.16500902685365 218.28277220941274 L 80.64478293247413 224.49679209464531 L 73.47489337134908 230.90827653136654 L 66.68256086826668 237.48528128297633 L 60.292701080477215 244.19440882573994 L 54.32780266160687 251.00099247243855 L 48.80781911533981 257.8692884443589 L 43.750075225470624 264.76267480720867 L 39.16918856586439 271.6438561464811 L 35.0770065079612 278.475072824125 L 31.482559055244252 285.21831363126637 L 29.36595036824791 289.6461379141547 L 27.474488061984857 294.00670980363066 L 25.8087307586416 298.28885497453825 L 24.368672261758746 302.4814912313633 L 23.153744233565845 306.5736566702777 L 22.162820287282273 310.55453760415617 L 21.39422148237344 314.4134961798688 L 20.845723207204628 318.1400976179003 L 20.51456343003781 321.72413700525306 L 20.397452295868135 325.15566557367833 L 20.49058304320168 328.42501639653847 L 20.789644211551845 331.522829439033 L 21.289833107180442 334.44007589810747 L 21.985870491442043 337.168081770124 L 22.872016453012904 339.6985505862789 L 23.94208742230684 342.02358525781165 L 25.189474283510933 344.13570897526847 L 26.607161536913893 346.02788510842055 L 28.187747461563376 347.69353605593113 L 29.92346522577772 349.12656099647666 L 31.806204890661107 350.3213524957632 L 33.82753624953344 351.2728119267332 L 35.97873244409479 351.976363663215 L 38.25079429620126 352.42796801033353 L 40.634475292345456 352.62413283814885 L 43.12030715630283 352.56192388823564 L 45.69862594395035 352.23897372622787 L 48.35959859296139 351.65348931674197 L 51.093249858961 350.80425820053676 L 53.88948956877394 349.69065325726376 L 56.7381401206234 348.31263604070455 L 59.62896416054165 346.6707586769634 L 62.55169236383861 344.76616431968273 L 65.49605125023356 342.6005861599632 L 68.45179096120671 340.1763449922905 L 71.40871292824784 337.49634534138875 L 75.82420381764067 333.0045742029745 L 80.185931457173 327.9594753992801 L 84.46095713760735 322.3780356736671 L 88.61728084225305 316.2799903202315 L 92.62403403159844 309.68772806753753 L 96.45166534925974 302.62618128577276 L 98.88998563167348 297.6711815112786 L 101.22828328272077 292.528394296356 L 103.45899903287226 287.2069252030959 L 105.57494354031563 281.71629085847 L 107.56931653362435 276.0663973941654 L 109.4357249089764 270.26751792638674 L 111.16819973562761 264.3302691309308 L 112.76121212614194 258.265586971111 L 114.20968793078812 252.08470163823773 L 115.50902121852434 245.7991117663363 L 116.6550865100967 239.42055798460814 L 117.64424973197318 232.96099587280025 L 118.47337786310545 226.43256838614968 L 119.13984724985494 219.84757781790213 L 119.64155056782624 213.2184573685655 L 119.97690241281036 206.5577423920449 L 120.14484350654573 199.87804138961607 L 120.14484350654574 193.1920068233312 L 119.97690241281038 186.51230582090238 L 119.64155056782624 179.85159084438178 L 119.13984724985495 173.22247039504515 L 118.47337786310547 166.63747982679757 L 117.6442497319732 160.109052340147 L 116.65508651009672 153.64949022833912 L 115.50902121852438 147.270936446611 L 114.20968793078816 140.98534657470952 L 112.76121212614198 134.80446124183626 L 111.16819973562767 128.7397790820165 L 109.43572490897645 122.80253028656053 L 107.5693165336244 117.00365081878185 L 105.57494354031569 111.35375735447722 L 103.45899903287233 105.8631230098513 L 101.22828328272084 100.54165391659124 L 98.88998563167355 95.39886670166865 L 96.4516653492598 90.44386692717445 L 92.62403403159851 83.38232014540966 L 88.61728084225312 76.79005789271568 L 84.46095713760744 70.69201253928006 L 80.18593145717307 65.11057281366706 L 75.82420381764075 60.06547400997266 L 71.4087129282479 55.57370287155845 L 66.97313743846823 51.64941766763721 L 64.02180946638511 49.35418131389889 L 61.08698256276334 47.3188416073541 L 58.178921864021824 45.54542593515481 L 55.30790224885034 44.035372683754986 L 52.484180533039904 42.789529526445165 L 49.717967662251596 41.80815315598349 L 47.01940097416349 41.09091046181601 L 44.39851660129247 40.63688114775792 L 41.865222085463046 40.44456178240381 L 39.429269274381156 40.51187127094241 L 37.100227570093764 40.83615773349851 L 34.88745759824637 41.41420677160144 L 32.80008536601562 42.242251100908646 L 30.846976975383598 43.315981524895335 L 29.036713957040888 44.63055922086991 L 27.37756928866071 46.180629306394366 L 25.877484159578913 47.96033565099199 L 24.544045542051776 49.96333689491405 L 23.38446462724258 52.18282363372802 L 22.4055561819261 54.61153672458036 L 21.613718879590365 57.24178666719234 L 21.014916657171014 60.06547400997249 L 20.614661146079584 63.07411072907772 L 20.417995223486358 66.25884252583583 L 20.429477727005988 69.6104719856659 L 20.65316937300473 73.11948253949244 L 21.092619915722665 76.77606316666811 L 21.750856581278015 80.57013377657832 L 22.630373807414642 84.49137120444253 L 23.73312431655758 88.52923575529906 L 25.060511546389264 92.67299822883311 L 26.613383458731434 96.91176735652543 L 28.392027744040803 101.2345175815991 L 30.396168435312944 105.63011711142619 L 32.62496394162372 110.08735617140027 L 35.077006507961144 114.59497538882191 L 39.169188565864445 121.4261920664661 L 43.750075225470525 128.3073734057383 L 48.80781911533974 135.200759768588 L 54.327802661606924 142.0690557405086 L 60.29270108047709 148.875639387207 L 66.68256086826656 155.5847669299706 L 73.47489337134917 162.16177168158063 L 80.64478293247397 168.57325611830163 L 88.16500902685351 174.78727600353423 L 96.00618172164616 180.7735155249293 L 104.13688971642715 186.50345245886118 L 112.52386015039448 191.95051243384597 L 121.13212929479602 197.09021142744186 L 129.925223186775 201.90028569901963 L 138.86534720386797 206.36080843316032 L 147.91358352707593 210.45429244490478 L 157.03009539505985 214.16577837821782 L 166.17433701284074 217.4829079123742 L 175.3052679456402 220.39598157705595 L 184.38157080236306 222.89800086527538 L 193.36187099385407 224.98469442330628 L 202.20495733854477 226.65452818809717 L 210.8700022825824 227.90869943465515 L 219.31678050290355 228.75111478806082 L 227.50588467014893 229.18835234664098 L 235.398937163607 229.22960815379975 L 242.95879655251133 228.88662734561416 L 247.79589838547244 228.45142761628483 L 252.45882710810315 227.8565225287227 L 256.9377442766779 227.10716491071943 L 261.2231814247774 226.20904533168402 L 265.3060628156948 225.16827532910804 L 269.177727263419 223.99136954309074 L 272.8299489677689 222.68522680558644 L 276.25495731171276 221.25711023369567 L 279.4454555714777 219.71462637885102 L 282.3946384927684 218.06570348615088 L 285.09620868923884 216.3185689203548 L 287.5443918222868 214.48172581717319 L 289.733950524295 212.56392902045172 L 291.66019703055696 210.57416036766912 L 293.31900448836404 208.52160338781803 L 294.70681691501545 206.41561747723676 L 295.82065777989703 204.26571162028384 L 296.6581371891992 202.08151772290498 L 297.21745765533666 199.87276362812483 L 297.49741843666663 197.64924588330524 L 297.5324276296234 196.5350241064736" stroke-linecap="round" stroke-linejoin="round" stroke-miterlimit="10" stroke-width="2.5" stroke-dasharray=""/></g></g><g id="sketch-abaa41b2"><title>Expression 3</title><g><path fill="none" stroke="#c74440" class="dcg-svg-curve" paint-order="fill stroke markers" d=" M 120.16584858003723 196.53502410647354 L 120.16584858003723 196.53502410647354 L 128.92257312162303 201.37341471727515 L 137.8300594347729 205.86577178752148 L 146.84973942713933 209.99443117537118 L 155.942109744659 213.74422713380076 L 165.0669390035361 217.10256653485948 L 174.18347959070877 220.05948792767572 L 183.25068285659376 222.6077051132587 L 192.22741650404186 224.74263500760316 L 201.07268296430937 226.46240965433225 L 209.74583754453744 227.76787233860352 L 218.20680513176944 228.66255784473424 L 226.41629424592105 229.1526569904674 L 234.3360072483119 229.24696566048092 L 241.92884553328986 228.95681865013378 L 249.1591085580107 228.2960087170406 L 253.76093738578243 227.65742889078098 L 258.1767485002611 226.86659194101497 L 262.39723916779957 225.92927562542536 L 266.41350251248605 224.8516703867385 L 270.2170488489897 223.6403613666689 L 273.7998260265489 222.3023094005428 L 277.15423873355815 220.84483104195178 L 280.27316671478206 219.2755776692435 L 283.1499818559242 217.60251372798095 L 285.7785640930869 215.8338941656898 L 288.15331610757755 213.97824111725734 L 290.2691767695297 212.04431990124445 L 292.12163329691913 210.04111438911565 L 293.70673209974143 207.97780181097983 L 295.0210882823911 205.86372706286087 L 296.0618937806103 203.70837658177848 L 296.8269241127772 201.5213518560141 L 297.31454372874146 199.3123426388595 L 297.5237099429078 197.0910999348965 L 297.4539754417845 194.86740882843213 L 297.1054893597623 192.65106122411242 L 296.4789969204474 190.45182856996092 L 295.5758376444397 188.27943463313204 L 294.397942128016 186.1435283985366 L 292.9478274007265 184.05365716018457 L 291.22859087345205 182.0192398746044 L 289.2439028919697 180.0495408450326 L 286.9979979145467 178.15364380423213 L 284.4956643354987 176.34042646278795 L 281.7422329800163 174.61853558855043 L 278.74356429886654 172.99636268155265 L 275.5060342948051 171.4820203072207 L 272.03651921568627 170.08331914902914 L 268.34237905232055 168.80774583993323 L 264.4314398820973 167.66244162993752 L 260.3119751022539 166.65418194504358 L 255.99268559942766 165.78935689056337 L 251.48267890476484 165.07395274939282 L 246.79144738637308 164.51353452332162 L 241.92884553328986 164.1132295628133 L 236.9050663873867 163.87771232793364 L 231.7306171817352 163.81119032024014 L 223.71012670404218 164.03629357996982 L 215.41250278525115 164.660404953689 L 206.87639741517893 165.69145857837196 L 198.14138685557384 167.13476483031735 L 189.2477600186598 168.99296449535436 L 180.2363033970443 171.26599852390208 L 171.14808374386595 173.9510935637087 L 162.02422971398593 177.04276337309923 L 152.90571368213762 180.53282612694807 L 143.83313495219411 184.41043753688575 L 134.8465055631301 188.6621396169568 L 125.98503988186712 193.27192483658126 L 120.16584858003723 196.53502410647354" stroke-linecap="round" stroke-linejoin="round" stroke-miterlimit="10" stroke-width="2.5" stroke-dasharray=""/></g></g><g id="sketch-abaa41b2"><title>Expression 16</title><path fill="#2d70b3" stroke="none" paint-order="stroke fill markers" d="" fill-opacity="0.4"/><g><path fill="none" stroke="#2d70b3" class="dcg-svg-curve" paint-order="fill stroke markers" d=" M 0 259.45371529171155 L 5.846994544492501 256.3922361072853 M 9.567809254624093 254.4440220808323 L 15.414803799116594 251.3825428964061 M 19.135618509248186 249.43432886995308 L 24.98261305374069 246.3728496855269 M 28.70342776387228 244.42463565907386 L 34.55042230836478 241.36315647464767 M 38.27123701849637 239.41494244819464 L 44.118231562988875 236.35346326376845 M 47.839046273120466 234.40524923731542 L 53.68604081761297 231.34377005288923 M 57.40685552774456 229.3955560264362 L 63.253850072237064 226.33407684200998 M 66.97466478236866 224.38586281555695 L 72.82165932686117 221.32438363113073 M 76.54247403699276 219.3761696046777 L 82.38946858148526 216.31469042025148 M 86.11028329161685 214.36647639379845 L 91.95727783610936 211.30499720937223 M 95.67809254624095 209.3567831829192 L 101.52508709073345 206.295303998493 M 105.24590180086504 204.34708997203998 L 111.09289634535754 201.28561078761376 M 114.81371105548914 199.33739676116073 L 120.66070559998164 196.2759175767345 M 124.38152031011323 194.32770355028148 L 130.22851485460575 191.26622436585527 M 133.94932956473735 189.31801033940224 L 139.79632410922986 186.25653115497602 M 143.51713881936146 184.308317128523 L 149.36413336385397 181.24683794409677 M 153.08494807398557 179.29862391764374 L 158.93194261847808 176.23714473321752 M 162.65275732860968 174.2889307067645 L 168.49975187310218 171.22745152233827 M 172.2205665832338 169.27923749588524 L 178.0675611277263 166.21775831145902 M 181.7883758378579 164.269544285006 L 187.6353703823504 161.20806510057977 M 191.356185092482 159.25985107412674 L 197.2031796369745 156.19837188970052 M 200.9239943471061 154.2501578632475 L 206.7709888915986 151.18867867882128 M 210.49180360173017 149.24046465236825 L 216.33879814622267 146.17898546794203 M 220.05961285635425 144.230771441489 L 225.90660740084675 141.1692922570628 M 229.62742211097833 139.22107823060978 L 235.47441665547083 136.1595990461836 M 239.1952313656024 134.21138501973056 L 245.0422259100949 131.14990583530434 M 248.7630406202265 129.2016918088513 L 254.610035164719 126.1402126244251 M 258.33084987485057 124.19199859797206 L 264.17784441934305 121.13051941354585 M 267.89865912947465 119.18230538709281 L 273.7456536739671 116.1208262026666 M 277.46646838409873 114.17261217621356 L 283.3134629285912 111.11113299178736 M 287.0342776387228 109.16291896533431 L 292.8812721832153 106.10143978090811 M 296.6020868933469 104.15322575445506 L 302.44908143783937 101.09174657002886 M 306.169896147971 99.14353254357583 L 312.01689069246345 96.08205335914963 M 315.73770540259505 94.13383933269658 L 321.5846999470876 91.07236014827038 M 325.3055146572192 89.12414612181735 L 331.15250920171167 86.06266693739114 M 334.8733239118433 84.11445291093811 L 340.72031845633575 81.05297372651191 M 344.44113316646735 79.10475970005888 L 350.2881277109599 76.04328051563267 M 354.0089424210915 74.09506648917963 L 359.85593696558396 71.03358730475342 M 363.57675167571557 69.0853732783004 L 369.42374622020805 66.02389409387419 M 373.14456093033965 64.07568006742116 L 378.9915554748321 61.014200882994956 M 382.71237018496373 59.06598685654192 L 388.5593647294562 56.004507672115714 M 392.2801794395878 54.05629364566268 L 398.12717398408034 50.99481446123648" stroke-linecap="round" stroke-linejoin="round" stroke-miterlimit="10" stroke-width="1.5" stroke-dasharray=""/></g></g><g id="sketch-abaa41b2"><title>Expression 17</title><path fill="#000000" stroke="none" paint-order="stroke fill markers" d="" fill-opacity="0.4"/><g><path fill="none" stroke="#000000" class="dcg-svg-curve" paint-order="fill stroke markers" d=" M 0 133.61633292123557 L 5.846994544492501 136.67781210566176 M 9.567809254624093 138.6260261321148 L 15.414803799116594 141.68750531654098 M 19.135618509248186 143.635719342994 L 24.98261305374069 146.6971985274202 M 28.70342776387228 148.64541255387323 L 34.55042230836478 151.70689173829942 M 38.27123701849637 153.65510576475245 L 44.118231562988875 156.71658494917864 M 47.839046273120466 158.66479897563167 L 53.68604081761297 161.72627816005786 M 57.40685552774456 163.6744921865109 L 63.253850072237064 166.7359713709371 M 66.97466478236866 168.68418539739014 L 72.82165932686117 171.74566458181636 M 76.54247403699276 173.6938786082694 L 82.38946858148526 176.7553577926956 M 86.11028329161685 178.70357181914864 L 91.95727783610936 181.76505100357485 M 95.67809254624095 183.71326503002788 L 101.52508709073345 186.77474421445407 M 105.24590180086504 188.7229582409071 L 111.09289634535754 191.78443742533332 M 114.81371105548914 193.73265145178635 L 120.66070559998164 196.79413063621257 M 124.38152031011323 198.7423446626656 L 130.22851485460575 201.80382384709182 M 133.94932956473735 203.75203787354485 L 139.79632410922986 206.81351705797107 M 143.51713881936146 208.7617310844241 L 149.36413336385397 211.82321026885032 M 153.08494807398557 213.77142429530335 L 158.93194261847808 216.83290347972957 M 162.65275732860968 218.7811175061826 L 168.49975187310218 221.84259669060881 M 172.2205665832338 223.79081071706185 L 178.0675611277263 226.85228990148806 M 181.7883758378579 228.8005039279411 L 187.6353703823504 231.8619831123673 M 191.356185092482 233.81019713882034 L 197.2031796369745 236.87167632324656 M 200.9239943471061 238.8198903496996 L 206.7709888915986 241.8813695341258 M 210.49180360173017 243.82958356057884 L 216.33879814622267 246.89106274500506 M 220.05961285635425 248.8392767714581 L 225.90660740084675 251.90075595588428 M 229.62742211097833 253.8489699823373 L 235.47441665547083 256.9104491667635 M 239.1952313656024 258.85866319321656 L 245.0422259100949 261.9201423776428 M 248.7630406202265 263.86835640409583 L 254.610035164719 266.92983558852205 M 258.33084987485057 268.8780496149751 L 264.17784441934305 271.93952879940133 M 267.89865912947465 273.8877428258544 L 273.7456536739671 276.9492220102806 M 277.46646838409873 278.89743603673367 L 283.3134629285912 281.9589152211599 M 287.0342776387228 283.90712924761294 L 292.8812721832153 286.96860843203916 M 296.6020868933469 288.9168224584922 L 302.44908143783937 291.97830164291844 M 306.169896147971 293.92651566937144 L 312.01689069246345 296.98799485379766 M 315.73770540259505 298.93620888025066 L 321.5846999470876 301.9976880646769 M 325.3055146572192 303.9459020911299 L 331.15250920171167 307.0073812755561 M 334.8733239118433 308.9555953020091 L 340.72031845633575 312.0170744864353 M 344.44113316646735 313.9652885128883 L 350.2881277109599 317.02676769731454 M 354.0089424210915 318.97498172376754 L 359.85593696558396 322.0364609081937 M 363.57675167571557 323.98467493464676 L 369.42374622020805 327.046154119073 M 373.14456093033965 328.994368145526 L 378.9915554748321 332.05584732995214 M 382.71237018496373 334.0040613564052 L 388.5593647294562 337.06554054083136 M 392.2801794395878 339.0137545672844 L 398.12717398408034 342.0752337517106" stroke-linecap="round" stroke-linejoin="round" stroke-miterlimit="10" stroke-width="1.5" stroke-dasharray=""/></g></g></g><g id="labels-abaa41b2"/><g id="labels-abaa41b2"/></g></svg>